<svg width="292" height="83" viewBox="0 0 292 83" fill="none" xmlns="http://www.w3.org/2000/svg">
<path d="M55.3641 55.286C55.3641 55.286 52.9152 56.9376 50.28 56.793C47.93 56.6642 45.13 55.5739 45.3041 52.6924C45.539 48.8061 50.7642 48.8913 53.3795 47.6859C56.0147 46.4713 58.608 44.5923 60.2868 42.1954C62.6838 38.7733 63.4287 34.384 63.2092 30.2846C63.0952 28.1552 62.4122 24.8827 62.4122 24.8827C62.4122 24.8827 63.5509 28.6824 64.0505 31.1702C64.5628 33.7212 64.7799 35.1734 64.9803 37.7676C65.3736 42.8588 65.5425 48.4448 63.3863 53.2207C60.9738 58.5644 55.5984 62.8934 49.5273 62.342C43.509 61.7953 38.7188 56.802 38.4135 50.6968C38.2392 47.2128 39.8126 43.8005 41.4244 40.8009C37.472 41.388 34.3774 43.1941 32.029 46.251C30.784 47.8716 30.2639 48.961 29.7774 50.9459C29.123 53.6163 29.6464 57.9584 29.6464 57.9584C29.6464 57.9584 28.9407 54.7423 28.8038 52.6657C28.4635 47.5058 29.9636 42.42 33.3658 38.5203C36.0743 35.4157 40.498 34.5471 43.457 33.3557C46.2461 32.2328 47.8245 29.4922 45.4498 27.3206C45.3642 27.2472 45.277 27.1727 45.188 27.0966C45.2801 27.1705 45.3673 27.2452 45.4498 27.3206C46.3444 28.0891 47.0475 28.7448 47.4905 29.9304C49.878 36.32 42.2849 42.148 41.4244 48.173C40.6134 53.8508 44.0042 59.7723 50.28 59.5967C52.0345 59.5476 55.4889 58.8634 57.0103 57.1614C58.1864 55.8457 56.8461 54.4776 55.3641 55.286Z" fill="url(#paint0_linear_14893_19410)"/>
<path d="M41.7199 26.1478C39.6509 26.1478 36.7165 27.6533 36.7165 27.6533C35.5038 28.3624 33.9005 26.9849 35.0329 25.718C36.5543 24.016 39.9662 23.1965 41.7199 23.2671C48.5491 23.5421 51.3865 28.8828 50.5755 34.5607C49.715 40.5857 42.122 46.4136 44.5095 52.8032C44.9948 54.1022 45.6208 54.8116 46.6963 55.6703C44.1939 52.5849 47.0828 50.144 49.3878 49.2159C52.3467 48.0246 54.6659 48.0322 58.6342 44.2133C62.3535 40.6339 63.6734 35.2911 63.218 30.0107C62.9777 27.2241 62.4133 24.8754 62.4133 24.8754C62.4133 24.8754 63.008 29.1451 62.3535 31.8154C61.8671 33.8003 61.4113 34.9312 60.2282 36.5975C57.881 39.9031 54.5279 41.4566 50.5756 42.0437C52.1873 39.044 53.7607 35.5209 53.5865 32.0368C53.3891 28.0902 51.256 24.331 47.9189 22.2071C40.6903 17.6065 31.8235 22.4032 28.6136 29.513C26.4574 34.2889 26.6263 39.8748 27.0196 44.966C27.22 47.5602 27.4372 49.0125 27.9494 51.5635C28.449 54.0512 29.6298 57.821 29.6298 57.821C29.6298 57.821 28.9047 54.5784 28.7907 52.449C28.5058 47.1276 30.6051 40.4219 34.724 37.483C38.4804 34.8028 46.4374 34.3174 46.6958 30.0412C46.87 27.1597 44.0735 26.1478 41.7199 26.1478Z" fill="url(#paint1_linear_14893_19410)"/>
<circle cx="34.2919" cy="53.9978" r="2.58826" fill="#8056D9"/>
<circle cx="30.6006" cy="62.4069" r="1.77343" fill="#8056D9"/>
<circle cx="57.8397" cy="29.0021" r="2.58826" transform="rotate(-180 57.8397 29.0021)" fill="#8056D9"/>
<circle cx="61.5309" cy="20.5931" r="1.77343" transform="rotate(-180 61.5309 20.5931)" fill="#8056D9"/>
<path d="M89.9583 31.9661C90.7644 31.9661 91.6047 32.0948 92.4794 32.352L92.325 34.5129C91.4847 34.2214 90.6529 34.0756 89.8297 34.0756C88.5606 34.0756 87.2658 34.5644 85.9452 35.5419C84.6246 36.5024 83.5185 37.8058 82.6267 39.4522V58H80.3114V32.5064H82.6267V36.9311C83.3813 35.439 84.436 34.2385 85.7909 33.3296C87.1457 32.4206 88.5349 31.9661 89.9583 31.9661ZM117.974 44.9316H95.3102V45.0345C95.3102 48.3445 96.3306 51.0714 98.3715 53.2151C100.429 55.3589 102.959 56.4308 105.96 56.4308C108.104 56.4308 110.016 55.9934 111.697 55.1188C113.395 54.2441 114.664 53.0265 115.504 51.4658L117.331 52.6234C116.319 54.4414 114.801 55.882 112.778 56.9453C110.771 57.9914 108.481 58.5145 105.909 58.5145C104.16 58.5145 102.496 58.1801 100.918 57.5112C99.3576 56.8252 98.0028 55.8991 96.8537 54.7329C95.7046 53.5667 94.7871 52.1432 94.1011 50.4625C93.4322 48.7818 93.0978 46.9896 93.0978 45.086C93.0978 41.4159 94.3326 38.3117 96.8022 35.7735C99.289 33.2353 102.325 31.9661 105.909 31.9661C109.322 31.9661 112.186 33.1324 114.501 35.4648C116.816 37.78 117.974 40.6527 117.974 44.0827V44.9316ZM105.857 33.9213C103.199 33.9213 100.91 34.7788 98.9889 36.4938C97.0681 38.1916 95.8933 40.3697 95.4645 43.028H115.659C115.539 40.4211 114.544 38.2517 112.675 36.5195C110.805 34.7873 108.533 33.9213 105.857 33.9213ZM143.52 21.1101H145.835V58H143.52V53.6267C142.731 54.9987 141.419 56.1564 139.584 57.0996C137.766 58.0429 135.897 58.5145 133.976 58.5145C130.237 58.5145 127.125 57.254 124.638 54.7329C122.151 52.1947 120.908 49.0133 120.908 45.1889C120.908 41.4159 122.151 38.2688 124.638 35.7477C127.125 33.2267 130.237 31.9661 133.976 31.9661C135.931 31.9661 137.818 32.4464 139.636 33.4068C141.454 34.35 142.748 35.5076 143.52 36.8797V21.1101ZM134.233 56.3793C136.068 56.3793 137.861 55.882 139.61 54.8873C141.376 53.8926 142.68 52.632 143.52 51.1057V39.4007C142.714 37.8572 141.428 36.5881 139.661 35.5934C137.912 34.5815 136.103 34.0756 134.233 34.0756C131.061 34.0756 128.419 35.1303 126.31 37.2398C124.218 39.3493 123.172 41.999 123.172 45.1889C123.172 48.3959 124.218 51.0628 126.31 53.1894C128.419 55.316 131.061 56.3793 134.233 56.3793Z" fill="#191919"/>
<path d="M173.47 31.606C174.791 31.606 175.846 31.7603 176.635 32.0691L176.197 39.0406C175.1 38.6461 173.993 38.4489 172.879 38.4489C171.953 38.4489 170.924 38.809 169.792 39.5293C168.677 40.2325 167.828 41.1758 167.245 42.3591V58H159.81V32.1205H167.245V35.1818C167.845 34.1185 168.746 33.261 169.946 32.6093C171.164 31.9404 172.338 31.606 173.47 31.606ZM189.575 31.606C191.445 31.606 193.203 31.949 194.849 32.635C196.513 33.321 197.936 34.2643 199.119 35.4648C200.32 36.6481 201.263 38.0802 201.949 39.7609C202.652 41.4244 203.004 43.1995 203.004 45.086C203.004 47.607 202.412 49.8966 201.229 51.9546C200.063 54.0126 198.451 55.6247 196.393 56.7909C194.352 57.94 192.079 58.5145 189.575 58.5145C185.751 58.5145 182.552 57.2368 179.98 54.6815C177.407 52.1261 176.121 48.9276 176.121 45.086C176.121 41.2444 177.407 38.0373 179.98 35.4648C182.552 32.8923 185.751 31.606 189.575 31.606ZM189.575 38.7061C187.809 38.7061 186.334 39.315 185.151 40.5326C183.984 41.7331 183.401 43.2509 183.401 45.086C183.401 46.8696 183.984 48.3702 185.151 49.5879C186.334 50.8055 187.809 51.4144 189.575 51.4144C191.308 51.4144 192.765 50.8055 193.949 49.5879C195.132 48.3702 195.724 46.8696 195.724 45.086C195.724 43.2509 195.132 41.7331 193.949 40.5326C192.782 39.315 191.325 38.7061 189.575 38.7061ZM229.836 32.1205L219.135 58H212.806L202.053 32.1205H210.131L215.97 47.89L221.707 32.1205H229.836ZM254.791 43.9283C254.791 44.9745 254.722 45.9435 254.585 46.8353H235.986C236.329 48.5846 237.075 49.9223 238.224 50.8484C239.373 51.7574 240.839 52.2118 242.623 52.2118C243.789 52.2118 244.904 51.9632 245.967 51.4658C247.047 50.9685 247.811 50.3339 248.256 49.5622L254.045 53.1122C253.101 54.8272 251.609 56.1564 249.568 57.0996C247.528 58.0429 245.161 58.5145 242.468 58.5145C238.661 58.5145 235.437 57.2111 232.796 54.6043C230.172 51.9803 228.86 48.7561 228.86 44.9316C228.86 41.1758 230.155 38.0201 232.744 35.4648C235.351 32.8923 238.541 31.606 242.314 31.606C245.813 31.606 248.762 32.7979 251.163 35.1818C253.582 37.5657 254.791 40.4812 254.791 43.9283ZM236.088 42.1019H247.356C247.202 40.8156 246.601 39.7437 245.555 38.8862C244.509 38.0287 243.3 37.6 241.928 37.6C240.385 37.6 239.115 37.9944 238.121 38.7833C237.126 39.5722 236.449 40.6784 236.088 42.1019ZM271.539 31.606C272.859 31.606 273.914 31.7603 274.703 32.0691L274.266 39.0406C273.168 38.6461 272.062 38.4489 270.947 38.4489C270.021 38.4489 268.992 38.809 267.86 39.5293C266.745 40.2325 265.896 41.1758 265.313 42.3591V58H257.879V32.1205H265.313V35.1818C265.914 34.1185 266.814 33.261 268.014 32.6093C269.232 31.9404 270.407 31.606 271.539 31.606Z" fill="#7F56D9"/>
<defs>
<linearGradient id="paint0_linear_14893_19410" x1="65.2658" y1="47.2549" x2="27.2333" y2="32.1631" gradientUnits="userSpaceOnUse">
<stop offset="0.396716" stop-color="#7F56D9"/>
<stop offset="0.51" stop-color="#01BDC9"/>
<stop offset="1" stop-color="#1F8A91"/>
</linearGradient>
<linearGradient id="paint1_linear_14893_19410" x1="26.734" y1="35.5097" x2="64.7984" y2="50.6604" gradientUnits="userSpaceOnUse">
<stop offset="0.396716" stop-color="#7F56D9"/>
<stop offset="0.52" stop-color="#FFC123"/>
<stop offset="1" stop-color="#C27114"/>
</linearGradient>
</defs>
</svg>
